# xmcd
#
# Track frame offsets: 
#        150
#        16775
#        48300
#
# Disc length: 991 seconds
#
# Revision: 0
# Processed by: cddbd v1.5.2PL0 Copyright (c) Steve Scherf et al.
# Submitted via: ExactAudioCopy v1.0b3
#
DISCID=1703dd03
DTITLE=Full On Sound - Mayhem
DYEAR=1900
DGENRE=
TTITLE0=Mayhem (Single Version)
TTITLE1=Mayhem (Doin' The Apocalypso)
TTITLE2=Mayhem (Doin' The Mayhemizer)
EXTD=
EXTT0=
EXTT1=
EXTT2=
PLAYORDER=
